# xmcd
#
# Track frame offsets:
#	150
#	1561
#	12965
#	23862
#	34632
#	45483
#	60000
#	72188
#	100411
#	104311
#	115456
#	125824
#	138542
#	150010
#	167457
#
# Disc length: 2360 seconds
#
# Revision: 1
# Processed by: cddbd v1.5.2PL0 Copyright (c) Steve Scherf et al.
# Submitted via: audiograbber 1.83.01
#
DISCID=ac09360f
DTITLE=The Roundups - Twelve Shots
DYEAR=1900
DGENRE=Country
TTITLE0=Howdy
TTITLE1=Road Song
TTITLE2=Done Right Done Left
TTITLE3=No Help Wanted
TTITLE4=South Side Polka
TTITLE5=Elvis Pills
TTITLE6=Running With Scissors
TTITLE7=New Kind Of Angel
TTITLE8=Never Talk About
TTITLE9=Jailbait
TTITLE10=Dumpster Honey (Ft Kari Liston)
TTITLE11=Corn Pon Hoes
TTITLE12=Moustache Song
TTITLE13=Clouds And Puddles
TTITLE14=The Whiddler
EXTD=
EXTT0=
EXTT1=
EXTT2=
EXTT3=
EXTT4=
EXTT5=
EXTT6=
EXTT7=
EXTT8=
EXTT9=
EXTT10=
EXTT11=
EXTT12=
EXTT13=
EXTT14=
PLAYORDER=
